<?xml version="1.0" encoding="utf-8"?>
<!-- Generator: Adobe Illustrator 21.0.0, SVG Export Plug-In . SVG Version: 6.00 Build 0)  -->
<svg version="1.1" id="图层_1" xmlns="http://www.w3.org/2000/svg" xmlns:xlink="http://www.w3.org/1999/xlink" x="0px" y="0px"
	 viewBox="0 0 222 222" style="enable-background:new 0 0 222 222;" xml:space="preserve">
<style type="text/css">
	.st0{fill:#FFFFFF;}
	.st1{font-family:'SourceHanSansCN-Bold-GBpc-EUC-H';}
	.st2{font-size:120px;}
</style>
<path class="st0" d="M199.4,129.5c-0.4,0-0.9,0-1.5-0.1c-6.4-0.7-11-6.5-10.3-12.9l7-57.9c0.4-3.7-1.8-7.3-5.2-8.5l-47.2-16.8
	c-6.1-2.2-9.2-8.8-7.1-14.9c2.2-6.1,8.8-9.2,14.9-7.1L197.2,28c14,4.9,22.5,18.6,20.7,33.3l-7,57.9
	C210.3,125,205.2,129.5,199.4,129.5z"/>
<path class="st0" d="M108.9,222.2c-5.2,0-10.4-1.3-15.3-4l-61-33.9c-8.8-4.9-14.7-13.7-15.9-23.7L4.3,60c-1.8-14.7,7-28.7,21-33.6
	l75.5-25.7c6.1-2.1,12.8,1.2,14.9,7.3c2.1,6.1-1.2,12.8-7.3,14.9L32.9,48.5c-3.6,1.2-5.8,4.8-5.4,8.6l12.4,100.6
	c0.3,2.5,1.8,4.8,4,6.1l61,33.9c2.4,1.3,5.4,1.3,7.7,0l66.1-36.2c2.2-1.2,3.9-3.6,4.2-6.1c0.7-6.4,6.5-11,12.9-10.3
	c6.4,0.7,11,6.5,10.3,12.9c-1.2,10-7.3,18.9-16.1,23.8L124,218.2C119.4,220.9,114.2,222.2,108.9,222.2z"/>
<text transform="matrix(1 0 0 1 68.9008 154)" class="st0 st1 st2">C</text>
</svg>
